<svg width="33" height="33" viewBox="0 0 33 33" fill="none" xmlns="http://www.w3.org/2000/svg">
<g id="fluent:people-16-filled">
<path id="Vector" d="M16.5 11.3438C16.5 12.7113 15.9568 14.0228 14.9898 14.9898C14.0228 15.9568 12.7113 16.5 11.3438 16.5C9.97623 16.5 8.66472 15.9568 7.69773 14.9898C6.73075 14.0228 6.1875 12.7113 6.1875 11.3438C6.1875 9.97623 6.73075 8.66472 7.69773 7.69773C8.66472 6.73075 9.97623 6.1875 11.3438 6.1875C12.7113 6.1875 14.0228 6.73075 14.9898 7.69773C15.9568 8.66472 16.5 9.97623 16.5 11.3438ZM23.7188 16.5C24.8128 16.5 25.862 16.0654 26.6356 15.2918C27.4092 14.5182 27.8438 13.469 27.8438 12.375C27.8438 11.281 27.4092 10.2318 26.6356 9.45818C25.862 8.6846 24.8128 8.25 23.7188 8.25C22.6247 8.25 21.5755 8.6846 20.8019 9.45818C20.0283 10.2318 19.5938 11.281 19.5938 12.375C19.5938 13.469 20.0283 14.5182 20.8019 15.2918C21.5755 16.0654 22.6247 16.5 23.7188 16.5ZM21.6562 21.8501V21.6562C21.6577 20.5403 21.2957 19.4543 20.625 18.5625H27.3756C28.7698 18.5625 29.9021 19.6928 29.9021 21.0891C29.9021 21.0891 29.9021 25.7812 23.7146 25.7812C22.4813 25.7812 21.4933 25.5956 20.7034 25.2966C21.196 24.3938 21.5091 23.4041 21.6253 22.3822C21.6377 22.2544 21.6459 22.1451 21.6501 22.0543L21.6562 21.8481V21.8501ZM19.5938 21.6562C19.5938 20.8357 19.2678 20.0488 18.6876 19.4686C18.1074 18.8884 17.3205 18.5625 16.5 18.5625H6.1875C5.36699 18.5625 4.58008 18.8884 3.99989 19.4686C3.4197 20.0488 3.09375 20.8357 3.09375 21.6562V21.8109C3.09375 21.8109 3.09375 27.8438 11.3438 27.8438C19.206 27.8438 19.5752 22.3657 19.5938 21.8501V21.6562Z" fill="#FAFAFA" fill-opacity="0.84"/>
</g>
</svg>
